<svg width="69" height="72" viewBox="0 0 69 72" fill="none" xmlns="http://www.w3.org/2000/svg">
<path d="M0 25.1163C0 22.342 2.24899 20.093 5.02326 20.093C7.79752 20.093 10.0465 22.342 10.0465 25.1163V46.8837C10.0465 49.658 7.79752 51.907 5.02326 51.907C2.24899 51.907 0 49.658 0 46.8837V25.1163Z" fill="url(#paint0_linear_584_1832)"/>
<path d="M11.7209 18.4186C11.7209 15.6443 13.9699 13.3953 16.7442 13.3953C19.5185 13.3953 21.7674 15.6443 21.7674 18.4186V53.5814C21.7674 56.3557 19.5185 58.6046 16.7442 58.6046C13.9699 58.6046 11.7209 56.3557 11.7209 53.5814V18.4186Z" fill="url(#paint1_linear_584_1832)"/>
<path d="M23.4419 11.7209C23.4419 8.94666 25.6908 6.69767 28.4651 6.69767C31.2394 6.69767 33.4884 8.94666 33.4884 11.7209V60.2791C33.4884 63.0533 31.2394 65.3023 28.4651 65.3023C25.6908 65.3023 23.4419 63.0533 23.4419 60.2791V11.7209Z" fill="url(#paint2_linear_584_1832)"/>
<path d="M35.1628 5.02325C35.1628 2.24899 37.4118 0 40.186 0C42.9603 0 45.2093 2.24899 45.2093 5.02326V66.9767C45.2093 69.751 42.9603 72 40.186 72C37.4118 72 35.1628 69.751 35.1628 66.9767V5.02325Z" fill="url(#paint3_linear_584_1832)"/>
<path d="M46.8837 28.4651C46.8837 25.6908 49.1327 23.4419 51.907 23.4419C54.6812 23.4419 56.9302 25.6908 56.9302 28.4651V43.5349C56.9302 46.3092 54.6812 48.5581 51.907 48.5581C49.1327 48.5581 46.8837 46.3092 46.8837 43.5349V28.4651Z" fill="url(#paint4_linear_584_1832)"/>
<path d="M58.6046 35.1628C58.6046 32.3885 60.8536 30.1395 63.6279 30.1395C66.4022 30.1395 68.6512 32.3885 68.6512 35.1628V36.8372C68.6512 39.6115 66.4022 41.8605 63.6279 41.8605C60.8536 41.8605 58.6046 39.6115 58.6046 36.8372V35.1628Z" fill="url(#paint5_linear_584_1832)"/>
<defs>
<linearGradient id="paint0_linear_584_1832" x1="-8.85125" y1="-11.077" x2="90.8164" y2="-5.24953" gradientUnits="userSpaceOnUse">
<stop stop-color="#B5179E"/>
<stop offset="1" stop-color="#7209B7"/>
</linearGradient>
<linearGradient id="paint1_linear_584_1832" x1="-8.85125" y1="-11.077" x2="90.8164" y2="-5.24953" gradientUnits="userSpaceOnUse">
<stop stop-color="#B5179E"/>
<stop offset="1" stop-color="#7209B7"/>
</linearGradient>
<linearGradient id="paint2_linear_584_1832" x1="-8.85125" y1="-11.077" x2="90.8164" y2="-5.24953" gradientUnits="userSpaceOnUse">
<stop stop-color="#B5179E"/>
<stop offset="1" stop-color="#7209B7"/>
</linearGradient>
<linearGradient id="paint3_linear_584_1832" x1="-8.85125" y1="-11.077" x2="90.8164" y2="-5.24953" gradientUnits="userSpaceOnUse">
<stop stop-color="#B5179E"/>
<stop offset="1" stop-color="#7209B7"/>
</linearGradient>
<linearGradient id="paint4_linear_584_1832" x1="-8.85125" y1="-11.077" x2="90.8164" y2="-5.24953" gradientUnits="userSpaceOnUse">
<stop stop-color="#B5179E"/>
<stop offset="1" stop-color="#7209B7"/>
</linearGradient>
<linearGradient id="paint5_linear_584_1832" x1="-8.85125" y1="-11.077" x2="90.8164" y2="-5.24953" gradientUnits="userSpaceOnUse">
<stop stop-color="#B5179E"/>
<stop offset="1" stop-color="#7209B7"/>
</linearGradient>
</defs>
</svg>
